<svg id="Capa_1" data-name="Capa 1" xmlns="http://www.w3.org/2000/svg" viewBox="0 0 1372.55 1429.22"><defs><style>.cls-1{fill:#34a850;}.cls-2{fill:#fff;}</style></defs><path class="cls-1" d="M0,91.62v1246c0,50.4,41.23,91.63,91.62,91.63H1280.93c50.39,0,91.62-41.23,91.62-91.63V91.62c0-50.39-41.23-91.62-91.62-91.62H91.62C41.23,0,0,41.23,0,91.62Z"/><path class="cls-2" d="M199.33,994.12a61.48,61.48,0,0,0,61.4,61.39h851.09a61.48,61.48,0,0,0,61.4-61.39v-559a61.39,61.39,0,0,0-27.06-50.85c-.75-.52-1.54-1-2.32-1.46l0,0a61.23,61.23,0,0,0-32-9.05H260.73a61,61,0,0,0-23.92,4.86,61.51,61.51,0,0,0-37.48,56.53Zm915.46,0a2.8,2.8,0,0,1-.22,1.07,3.31,3.31,0,0,1-1.17,1.4,2.71,2.71,0,0,1-1.58.49H260.73a2.55,2.55,0,0,1-1.07-.22,3.25,3.25,0,0,1-1.4-1.17,2.64,2.64,0,0,1-.5-1.57V452.39L669.6,738.6a29.28,29.28,0,0,0,33.35,0l411.84-286.21Zm-73.26-562L686.27,679,331,432.14Z"/></svg>